<svg xmlns="http://www.w3.org/2000/svg" width="19" height="17"><g clip-path="url(#a)"><path d="M18.917 7.301 10.246.265a1.18 1.18 0 0 0-1.49 0L.083 7.301a.223.223 0 0 0-.033.315l.468.582a.225.225 0 0 0 .317.033L2.11 7.195v9.273A.533.533 0 0 0 2.64 17h13.722a.526.526 0 0 0 .528-.53v-9.27l1.28 1.038a.224.224 0 0 0 .317-.033l.468-.58a.24.24 0 0 0-.037-.323m-11 8.636v-5.313h3.167v5.313zm7.917 0h-3.695v-5.844a.533.533 0 0 0-.528-.531H7.39a.526.526 0 0 0-.528.531v5.844H3.167V6.338l6.192-5.026a.22.22 0 0 1 .277 0l6.198 5.03z"/></g><defs><clipPath id="a"><path d="M0 0h19v17H0z"/></clipPath></defs></svg>