<svg xmlns="http://www.w3.org/2000/svg" width="181" height="39" fill="none">
  <g clip-path="url(#a)">
    <path
      fill="#143115"
      d="M29.376 31.384q-2.592 0-4.832-.832a11.6 11.6 0 0 1-3.84-2.432 11.4 11.4 0 0 1-2.56-3.68q-.896-2.112-.896-4.64t.896-4.64a11.4 11.4 0 0 1 2.56-3.68 11.5 11.5 0 0 1 3.872-2.4q2.208-.864 4.832-.864 2.911 0 5.248 1.024a10.1 10.1 0 0 1 3.968 2.944l-3.328 3.072q-1.152-1.312-2.56-1.952-1.409-.672-3.072-.672-1.568 0-2.88.512a6.5 6.5 0 0 0-2.272 1.472 6.9 6.9 0 0 0-1.504 2.272q-.512 1.312-.512 2.912t.512 2.912a6.9 6.9 0 0 0 1.504 2.272q.96.96 2.272 1.472 1.313.512 2.88.512 1.664 0 3.072-.64 1.408-.672 2.56-2.016l3.328 3.072a10.4 10.4 0 0 1-3.968 2.976q-2.336 1.024-5.28 1.024M38.775 31l9.984-22.4h5.12L63.895 31h-5.44l-8.192-19.776h2.047L44.087 31zm4.992-4.8 1.375-3.936h11.52l1.409 3.936zM69.733 31V12.824h-7.168V8.6h19.52v4.224h-7.168V31zm34.923.384q-2.591 0-4.832-.832a11.6 11.6 0 0 1-3.84-2.432 11.4 11.4 0 0 1-2.56-3.68q-.896-2.112-.896-4.64t.896-4.64a11.4 11.4 0 0 1 2.56-3.68 11.5 11.5 0 0 1 3.872-2.4q2.208-.864 4.832-.864 2.913 0 5.248 1.024a10.1 10.1 0 0 1 3.968 2.944l-3.328 3.072q-1.152-1.312-2.56-1.952-1.407-.672-3.072-.672-1.567 0-2.88.512a6.5 6.5 0 0 0-2.272 1.472 6.9 6.9 0 0 0-1.504 2.272q-.512 1.312-.512 2.912t.512 2.912a6.9 6.9 0 0 0 1.504 2.272 6.5 6.5 0 0 0 2.272 1.472q1.313.512 2.88.512 1.665 0 3.072-.64 1.408-.672 2.56-2.016l3.328 3.072a10.4 10.4 0 0 1-3.968 2.976q-2.335 1.024-5.28 1.024m9.399-.384 9.984-22.4h5.12L139.176 31h-5.44l-8.192-19.776h2.048L119.368 31zm4.992-4.8 1.376-3.936h11.52l1.408 3.936zm27.252-7.52h10.752v4.16H146.3zm.384 12.32H141.5V8.6h16.928v4.16h-11.744zm20.021-13.376h10.784v4.032h-10.784zm.384 9.216h12.192V31h-17.344V8.6h16.928v4.16h-11.776z"
    />
    <path fill="#8BAA80" d="M0 0h6.017v39H0z" />
  </g>
  <defs>
    <clipPath id="a"><path fill="#fff" d="M0 0h181v39H0z" /></clipPath>
  </defs>
</svg>
